<?xml version="1.0" encoding="utf-8"?>
<!-- Generator: Adobe Illustrator 20.0.0, SVG Export Plug-In . SVG Version: 6.00 Build 0)  -->
<svg version="1.1" id="图层_1" xmlns="http://www.w3.org/2000/svg" xmlns:xlink="http://www.w3.org/1999/xlink" x="0px" y="0px"
	 viewBox="0 0 35 35" style="enable-background:new 0 0 35 35;" xml:space="preserve">
<style type="text/css">
	.st0{fill:#FFFFFF;}
</style>
<path class="st0" d="M23.8,17.5v-1.8c0-3.5-2.8-6.3-6.3-6.3l0,0c-3.5,0-6.3,2.8-6.3,6.3v1.8c-1.7,0.2-3.1,1.7-3.1,3.5
	c0,2,1.6,3.6,3.6,3.6h5.4v-0.9l-2-0.8c-0.6-0.2-0.9-0.7-0.9-1.3c0-1,1-1.7,1.9-1.3l1.3,0.5l1.3-0.5c0.9-0.4,1.9,0.3,1.9,1.3
	c0,0.6-0.4,1.1-0.9,1.3l-2,0.8v0.9h5.4c2,0,3.6-1.6,3.6-3.6C26.9,19.2,25.5,17.7,23.8,17.5z M15.3,16.9c-0.5,0-0.8-0.4-0.8-0.8
	c0-0.5,0.4-0.8,0.8-0.8c0.5,0,0.8,0.4,0.8,0.8S15.7,16.9,15.3,16.9z M19.8,16.9c-0.5,0-0.8-0.4-0.8-0.8c0-0.5,0.4-0.8,0.8-0.8
	c0.5,0,0.8,0.4,0.8,0.8S20.3,16.9,19.8,16.9z"/>
<path class="st0" d="M23.6,8.5l-0.3,0.3c1.1,0.9,1.9,2,2.5,3.2l0.6-0.6c0.8-0.8,0.8-2.1,0-2.9C25.6,7.7,24.4,7.7,23.6,8.5z"/>
<path class="st0" d="M9.3,12c0.6-1.3,1.4-2.3,2.5-3.2l-0.3-0.3c-0.8-0.8-2.1-0.8-2.9,0c-0.8,0.8-0.8,2.1,0,2.9L9.3,12z"/>
<path class="st0" d="M29.6,5.9l-8.2-4.7c-2.4-1.4-5.4-1.4-7.8,0L5.4,5.9c-2.4,1.4-3.9,4-3.9,6.8v9.5C1.5,25,3,27.6,5.4,29l8.2,4.7
	c2.4,1.4,5.4,1.4,7.8,0l8.2-4.7c2.4-1.4,3.9-4,3.9-6.8v-9.5C33.5,9.9,32.1,7.3,29.6,5.9z M32.3,21.8c0,2.6-1.4,5-3.6,6.2l-7.6,4.4
	c-2.2,1.3-5,1.3-7.2,0L6.4,28c-2.2-1.3-3.6-3.7-3.6-6.2v-8.7c0-2.6,1.4-5,3.6-6.2l7.5-4.4c2.2-1.3,5-1.3,7.2,0l7.5,4.4
	c2.2,1.3,3.6,3.7,3.6,6.2v8.7C32.2,21.8,32.3,21.8,32.3,21.8z"/>
</svg>
