<?xml version="1.0" encoding="utf-8"?>
<!-- Generator: Adobe Illustrator 20.0.0, SVG Export Plug-In . SVG Version: 6.00 Build 0)  -->
<svg version="1.1" id="图层_1" xmlns="http://www.w3.org/2000/svg" xmlns:xlink="http://www.w3.org/1999/xlink" x="0px" y="0px"
	 viewBox="0 0 86.8 61.4" style="enable-background:new 0 0 86.8 61.4;" xml:space="preserve">
<style type="text/css">
	.st0{fill:#FFFFFF;}
</style>
<path class="st0" d="M48.8,19.1v-1.8c0-3.5-2.8-6.3-6.3-6.3l0,0c-3.5,0-6.3,2.8-6.3,6.3v1.8c-1.7,0.2-3.1,1.7-3.1,3.5
	c0,2,1.6,3.6,3.6,3.6h5.4v-0.9l-2-0.8c-0.6-0.2-0.9-0.7-0.9-1.3c0-1,1-1.7,1.9-1.3l1.3,0.5l1.3-0.5c0.9-0.4,1.9,0.3,1.9,1.3
	c0,0.6-0.4,1.1-0.9,1.3l-2,0.8v0.9h5.4c2,0,3.6-1.6,3.6-3.6C51.9,20.8,50.5,19.3,48.8,19.1z M40.3,18.5c-0.5,0-0.8-0.4-0.8-0.8
	c0-0.5,0.4-0.8,0.8-0.8c0.5,0,0.8,0.4,0.8,0.8S40.7,18.5,40.3,18.5z M44.8,18.5c-0.5,0-0.8-0.4-0.8-0.8c0-0.5,0.4-0.8,0.8-0.8
	c0.5,0,0.8,0.4,0.8,0.8S45.3,18.5,44.8,18.5z"/>
<path class="st0" d="M48.6,10.1l-0.3,0.3c1.1,0.9,1.9,2,2.5,3.2l0.6-0.6c0.8-0.8,0.8-2.1,0-2.9C50.6,9.3,49.4,9.3,48.6,10.1z"/>
<path class="st0" d="M34.3,13.6c0.6-1.3,1.4-2.3,2.5-3.2l-0.3-0.3c-0.8-0.8-2.1-0.8-2.9,0c-0.8,0.8-0.8,2.1,0,2.9L34.3,13.6z"/>
<path class="st0" d="M54.6,7.5l-8.2-4.7c-2.4-1.4-5.4-1.4-7.8,0l-8.2,4.7c-2.4,1.4-3.9,4-3.9,6.8v9.5c0,2.8,1.5,5.4,3.9,6.8l8.2,4.7
	c2.4,1.4,5.4,1.4,7.8,0l8.2-4.7c2.4-1.4,3.9-4,3.9-6.8v-9.5C58.5,11.5,57.1,8.9,54.6,7.5z M57.3,23.4c0,2.6-1.4,5-3.6,6.2L46.1,34
	c-2.2,1.3-5,1.3-7.2,0l-7.5-4.4c-2.2-1.3-3.6-3.7-3.6-6.2v-8.7c0-2.6,1.4-5,3.6-6.2l7.5-4.4c2.2-1.3,5-1.3,7.2,0l7.5,4.4
	c2.2,1.3,3.6,3.7,3.6,6.2v8.7H57.3z"/>
<g>
	<polygon class="st0" points="5.7,48.6 6.5,49.5 9.7,46.7 12.9,49.5 13.7,48.6 9.7,45.1 	"/>
	<path class="st0" d="M11.1,53.4H8.6v1.2h2.4c1.2,0,2.2-1,2.2-2.2s-1-2.2-2.2-2.2h-5v5.7c0,1.1,0.5,2.2,1.5,2.9
		c0.7,0.5,1.4,0.7,2.2,0.7c0.9,0,1.7-0.3,2.4-0.9l0.9-0.8l-0.8-0.9l-0.9,0.8c-0.9,0.8-2.2,0.8-3.1,0.1c-0.6-0.5-1-1.2-1-1.9v-4.4
		h3.7c0.5,0,1,0.4,1,1C12,52.9,11.6,53.4,11.1,53.4z"/>
	<polygon class="st0" points="30.9,49.1 33.2,49.1 33.2,47.9 30.9,47.9 30.9,45.9 29.6,45.9 29.6,47.9 28,47.9 28.8,46.8 27.8,46.1 
		25.6,49.1 29.6,49.1 29.6,50 25.7,50 25.7,51.3 34.3,51.3 34.3,50 30.9,50 	"/>
	<path class="st0" d="M47.5,48.6v-1.3h2.2v-1.2h-5.9v1.2h2.4v1.3c-1.3,0.3-2.3,1.5-2.3,2.9v7.4h1.2v-7.4c0-0.7,0.4-1.3,1.1-1.6v9
		h1.2v-9c0.6,0.2,1.1,0.9,1.1,1.6v7.4h1.2v-7.4C49.8,50.1,48.8,48.9,47.5,48.6z"/>
	<path class="st0" d="M42,48.1l-1.6,1.4l0.8,0.9l0.8-0.7v4.5c0,1.5-0.5,3-1.4,4.3l1,0.7c1.1-1.5,1.6-3.2,1.6-5v-8.7H42V48.1z"/>
	<path class="st0" d="M81.3,58.1L80.8,57l-0.9,0.4v-7.2c0-1.2-1-2.2-2.2-2.2s-2.2,1-2.2,2.2v4c0,1.5-0.5,3-1.4,4.3l1,0.7
		c1.1-1.5,1.6-3.2,1.6-5v-4c0-0.5,0.4-0.9,0.9-0.9c0.5,0,0.9,0.4,0.9,0.9v9.2L81.3,58.1z"/>
	<path class="st0" d="M16.9,48.1l-2.8,2.5l0.8,0.9l1.9-1.8v4.4c0,1.5-0.5,3-1.4,4.3l1,0.7c1.1-1.5,1.6-3.2,1.6-5v-8.7h-1.2V48.1z"/>
	<path class="st0" d="M37.4,49.2l0.8,0.9l1.4-1.2c0.4-0.3,0.6-0.8,0.6-1.3c0-0.5-0.2-1-0.6-1.3l-1.4-1.2L37.4,46l1.4,1.2
		c0.2,0.1,0.2,0.3,0.2,0.4s0,0.3-0.2,0.4L37.4,49.2z"/>
	<path class="st0" d="M40.9,51l-3.4,3l0.8,0.9l1.3-1.2v0.5c0,1.5-0.5,3-1.4,4.3l1,0.7c1.1-1.5,1.6-3.2,1.6-5V51z"/>
	<path class="st0" d="M24.8,56.2c0.3-1.1,0.5-2.2,0.5-3.3v-4.7L22.7,46l-0.8,0.9l2.2,1.9v4.1c0,2.1-0.7,4.2-1.9,5.9l1,0.7
		c0.5-0.6,0.8-1.3,1.2-2c1,1,2.4,1.6,3.9,1.6h6.2v-1.2h-6.2C26.9,57.8,25.6,57.2,24.8,56.2z"/>
	<path class="st0" d="M31.9,56.6c1.2,0,2.2-1,2.2-2.2c0-1.2-1-2.2-2.2-2.2h-3.6c-1.2,0-2.2,1-2.2,2.2c0,1.2,1,2.2,2.2,2.2H31.9z
		 M27.3,54.4c0-0.5,0.4-1,1-1h3.6c0.5,0,1,0.4,1,1c0,0.5-0.4,1-1,1h-3.6C27.7,55.4,27.3,55,27.3,54.4z"/>
	<path class="st0" d="M63,48.5h-7.6v1.2H63c1.1,0,2-0.9,2-2c0-1.1-0.9-2-2-2h-7.5c-1.3,0-2.3,1-2.3,2.3v4.1h11.5V51H54.4v-2.8
		c0-0.6,0.5-1.1,1.1-1.1H63c0.4,0,0.7,0.3,0.7,0.7C63.7,48.2,63.4,48.5,63,48.5z"/>
	<path class="st0" d="M63.4,52.8h-1.2v1h-8.8V55h8.8v2.8h-3.5c-0.7,0-1.4-0.3-1.8-0.8L55.6,56l-0.9,0.9l1.1,1.1
		c0.7,0.7,1.7,1.1,2.7,1.1h4.8v-4h1.3v-1.2h-1.3V52.8z"/>
	<polygon class="st0" points="81.3,46.1 78.1,46.1 78.1,45 76.9,45 76.9,46.1 74.4,46.1 74.4,47.4 81.3,47.4 	"/>
	<path class="st0" d="M71.9,45.1h-1.2v0.9h-2V51h-1.5v1.2h1.5v2c0,1.5-0.5,3-1.4,4.3l1,0.7c1.1-1.5,1.6-3.2,1.6-5v-2h0.8v3.4h1.2
		v-3.4h0.8v2c0,1.5-0.5,3-1.4,4.3l1,0.7c1.1-1.5,1.6-3.2,1.6-5v-8.1h-2V45.1z M72.6,51h-0.8v-3h-1.2v3h-0.8v-3.7h2.8V51z"/>
</g>
</svg>
